<mxfile host="app.diagrams.net" modified="2022-05-22T01:27:19.693Z" agent="5.0 (X11)" etag="qJr212OHOLo7KVwzX2rC" version="18.0.6" type="github">
  <diagram id="fzCI_hyJMyDTxW4y9vL-" name="Page-1">
    <mxGraphModel dx="1422" dy="757" grid="1" gridSize="10" guides="1" tooltips="1" connect="1" arrows="1" fold="1" page="1" pageScale="1" pageWidth="827" pageHeight="1169" math="0" shadow="0">
      <root>
        <mxCell id="0" />
        <mxCell id="1" parent="0" />
        <mxCell id="xfkqYVkovtJK-kkcOd9Y-1" value="Diagama de classes para o Doa-se" style="html=1;fillColor=#dae8fc;strokeColor=#6c8ebf;fontStyle=1" parent="1" vertex="1">
          <mxGeometry width="240" height="40" as="geometry" />
        </mxCell>
        <mxCell id="xfkqYVkovtJK-kkcOd9Y-90" style="edgeStyle=orthogonalEdgeStyle;rounded=0;orthogonalLoop=1;jettySize=auto;html=1;" parent="1" source="xfkqYVkovtJK-kkcOd9Y-2" target="xfkqYVkovtJK-kkcOd9Y-89" edge="1">
          <mxGeometry relative="1" as="geometry" />
        </mxCell>
        <mxCell id="xfkqYVkovtJK-kkcOd9Y-2" value="Doador" style="swimlane;fontStyle=1;align=center;verticalAlign=top;childLayout=stackLayout;horizontal=1;startSize=26;horizontalStack=0;resizeParent=1;resizeParentMax=0;resizeLast=0;collapsible=1;marginBottom=0;" parent="1" vertex="1">
          <mxGeometry y="80" width="330" height="564" as="geometry" />
        </mxCell>
        <mxCell id="xfkqYVkovtJK-kkcOd9Y-7" value="- id: UUID" style="text;strokeColor=none;fillColor=none;align=left;verticalAlign=top;spacingLeft=4;spacingRight=4;overflow=hidden;rotatable=0;points=[[0,0.5],[1,0.5]];portConstraint=eastwest;" parent="xfkqYVkovtJK-kkcOd9Y-2" vertex="1">
          <mxGeometry y="26" width="330" height="24" as="geometry" />
        </mxCell>
        <mxCell id="xfkqYVkovtJK-kkcOd9Y-3" value="- nome: String" style="text;strokeColor=none;fillColor=none;align=left;verticalAlign=top;spacingLeft=4;spacingRight=4;overflow=hidden;rotatable=0;points=[[0,0.5],[1,0.5]];portConstraint=eastwest;" parent="xfkqYVkovtJK-kkcOd9Y-2" vertex="1">
          <mxGeometry y="50" width="330" height="26" as="geometry" />
        </mxCell>
        <mxCell id="xfkqYVkovtJK-kkcOd9Y-6" value="- sobreNome: String" style="text;strokeColor=none;fillColor=none;align=left;verticalAlign=top;spacingLeft=4;spacingRight=4;overflow=hidden;rotatable=0;points=[[0,0.5],[1,0.5]];portConstraint=eastwest;" parent="xfkqYVkovtJK-kkcOd9Y-2" vertex="1">
          <mxGeometry y="76" width="330" height="26" as="geometry" />
        </mxCell>
        <mxCell id="xfkqYVkovtJK-kkcOd9Y-8" value="- email: String" style="text;strokeColor=none;fillColor=none;align=left;verticalAlign=top;spacingLeft=4;spacingRight=4;overflow=hidden;rotatable=0;points=[[0,0.5],[1,0.5]];portConstraint=eastwest;" parent="xfkqYVkovtJK-kkcOd9Y-2" vertex="1">
          <mxGeometry y="102" width="330" height="26" as="geometry" />
        </mxCell>
        <mxCell id="xfkqYVkovtJK-kkcOd9Y-9" value="- senha: String" style="text;strokeColor=none;fillColor=none;align=left;verticalAlign=top;spacingLeft=4;spacingRight=4;overflow=hidden;rotatable=0;points=[[0,0.5],[1,0.5]];portConstraint=eastwest;" parent="xfkqYVkovtJK-kkcOd9Y-2" vertex="1">
          <mxGeometry y="128" width="330" height="26" as="geometry" />
        </mxCell>
        <mxCell id="xfkqYVkovtJK-kkcOd9Y-98" value="&lt;div align=&quot;left&quot;&gt;- telefone: String&lt;/div&gt;" style="text;html=1;strokeColor=none;fillColor=none;align=left;verticalAlign=middle;whiteSpace=wrap;rounded=0;" parent="xfkqYVkovtJK-kkcOd9Y-2" vertex="1">
          <mxGeometry y="154" width="330" height="30" as="geometry" />
        </mxCell>
        <mxCell id="xfkqYVkovtJK-kkcOd9Y-10" value="- itensDoados: List&lt;Doacao&gt;" style="text;strokeColor=none;fillColor=none;align=left;verticalAlign=top;spacingLeft=4;spacingRight=4;overflow=hidden;rotatable=0;points=[[0,0.5],[1,0.5]];portConstraint=eastwest;" parent="xfkqYVkovtJK-kkcOd9Y-2" vertex="1">
          <mxGeometry y="184" width="330" height="26" as="geometry" />
        </mxCell>
        <mxCell id="xfkqYVkovtJK-kkcOd9Y-4" value="" style="line;strokeWidth=1;fillColor=none;align=left;verticalAlign=middle;spacingTop=-1;spacingLeft=3;spacingRight=3;rotatable=0;labelPosition=right;points=[];portConstraint=eastwest;" parent="xfkqYVkovtJK-kkcOd9Y-2" vertex="1">
          <mxGeometry y="210" width="330" height="8" as="geometry" />
        </mxCell>
        <mxCell id="xfkqYVkovtJK-kkcOd9Y-5" value="+ getId(): UUID" style="text;strokeColor=none;fillColor=none;align=left;verticalAlign=top;spacingLeft=4;spacingRight=4;overflow=hidden;rotatable=0;points=[[0,0.5],[1,0.5]];portConstraint=eastwest;" parent="xfkqYVkovtJK-kkcOd9Y-2" vertex="1">
          <mxGeometry y="218" width="330" height="26" as="geometry" />
        </mxCell>
        <mxCell id="xfkqYVkovtJK-kkcOd9Y-11" value="+ getNome(): String" style="text;strokeColor=none;fillColor=none;align=left;verticalAlign=top;spacingLeft=4;spacingRight=4;overflow=hidden;rotatable=0;points=[[0,0.5],[1,0.5]];portConstraint=eastwest;" parent="xfkqYVkovtJK-kkcOd9Y-2" vertex="1">
          <mxGeometry y="244" width="330" height="26" as="geometry" />
        </mxCell>
        <mxCell id="xfkqYVkovtJK-kkcOd9Y-12" value="+ setNome(String nome): void" style="text;strokeColor=none;fillColor=none;align=left;verticalAlign=top;spacingLeft=4;spacingRight=4;overflow=hidden;rotatable=0;points=[[0,0.5],[1,0.5]];portConstraint=eastwest;" parent="xfkqYVkovtJK-kkcOd9Y-2" vertex="1">
          <mxGeometry y="270" width="330" height="26" as="geometry" />
        </mxCell>
        <mxCell id="xfkqYVkovtJK-kkcOd9Y-14" value="+ getSobreNome(): String" style="text;strokeColor=none;fillColor=none;align=left;verticalAlign=top;spacingLeft=4;spacingRight=4;overflow=hidden;rotatable=0;points=[[0,0.5],[1,0.5]];portConstraint=eastwest;" parent="xfkqYVkovtJK-kkcOd9Y-2" vertex="1">
          <mxGeometry y="296" width="330" height="26" as="geometry" />
        </mxCell>
        <mxCell id="xfkqYVkovtJK-kkcOd9Y-13" value="+ setSobreNome(String sobreNome): void" style="text;strokeColor=none;fillColor=none;align=left;verticalAlign=top;spacingLeft=4;spacingRight=4;overflow=hidden;rotatable=0;points=[[0,0.5],[1,0.5]];portConstraint=eastwest;" parent="xfkqYVkovtJK-kkcOd9Y-2" vertex="1">
          <mxGeometry y="322" width="330" height="26" as="geometry" />
        </mxCell>
        <mxCell id="xfkqYVkovtJK-kkcOd9Y-15" value="+ getEmail(): String" style="text;strokeColor=none;fillColor=none;align=left;verticalAlign=top;spacingLeft=4;spacingRight=4;overflow=hidden;rotatable=0;points=[[0,0.5],[1,0.5]];portConstraint=eastwest;" parent="xfkqYVkovtJK-kkcOd9Y-2" vertex="1">
          <mxGeometry y="348" width="330" height="26" as="geometry" />
        </mxCell>
        <mxCell id="xfkqYVkovtJK-kkcOd9Y-17" value="+ setEmail(String email): void" style="text;strokeColor=none;fillColor=none;align=left;verticalAlign=top;spacingLeft=4;spacingRight=4;overflow=hidden;rotatable=0;points=[[0,0.5],[1,0.5]];portConstraint=eastwest;" parent="xfkqYVkovtJK-kkcOd9Y-2" vertex="1">
          <mxGeometry y="374" width="330" height="26" as="geometry" />
        </mxCell>
        <mxCell id="xfkqYVkovtJK-kkcOd9Y-20" value="+ getSenha(): String" style="text;strokeColor=none;fillColor=none;align=left;verticalAlign=top;spacingLeft=4;spacingRight=4;overflow=hidden;rotatable=0;points=[[0,0.5],[1,0.5]];portConstraint=eastwest;" parent="xfkqYVkovtJK-kkcOd9Y-2" vertex="1">
          <mxGeometry y="400" width="330" height="26" as="geometry" />
        </mxCell>
        <mxCell id="xfkqYVkovtJK-kkcOd9Y-21" value="+ setSenha(String senha): void" style="text;strokeColor=none;fillColor=none;align=left;verticalAlign=top;spacingLeft=4;spacingRight=4;overflow=hidden;rotatable=0;points=[[0,0.5],[1,0.5]];portConstraint=eastwest;" parent="xfkqYVkovtJK-kkcOd9Y-2" vertex="1">
          <mxGeometry y="426" width="330" height="26" as="geometry" />
        </mxCell>
        <mxCell id="xfkqYVkovtJK-kkcOd9Y-99" value="&lt;div align=&quot;left&quot;&gt;+ getTelefone(): String&lt;/div&gt;" style="text;html=1;strokeColor=none;fillColor=none;align=left;verticalAlign=middle;whiteSpace=wrap;rounded=0;" parent="xfkqYVkovtJK-kkcOd9Y-2" vertex="1">
          <mxGeometry y="452" width="330" height="30" as="geometry" />
        </mxCell>
        <mxCell id="xfkqYVkovtJK-kkcOd9Y-103" value="&lt;div align=&quot;left&quot;&gt;+ setTelefone(String telefone): String&lt;/div&gt;" style="text;html=1;strokeColor=none;fillColor=none;align=left;verticalAlign=middle;whiteSpace=wrap;rounded=0;" parent="xfkqYVkovtJK-kkcOd9Y-2" vertex="1">
          <mxGeometry y="482" width="330" height="30" as="geometry" />
        </mxCell>
        <mxCell id="xfkqYVkovtJK-kkcOd9Y-18" value="+ getItensDoados(): String" style="text;strokeColor=none;fillColor=none;align=left;verticalAlign=top;spacingLeft=4;spacingRight=4;overflow=hidden;rotatable=0;points=[[0,0.5],[1,0.5]];portConstraint=eastwest;" parent="xfkqYVkovtJK-kkcOd9Y-2" vertex="1">
          <mxGeometry y="512" width="330" height="26" as="geometry" />
        </mxCell>
        <mxCell id="xfkqYVkovtJK-kkcOd9Y-19" value="+ setItensDoados(List&lt;Doacao&gt; itensDoados): void" style="text;strokeColor=none;fillColor=none;align=left;verticalAlign=top;spacingLeft=4;spacingRight=4;overflow=hidden;rotatable=0;points=[[0,0.5],[1,0.5]];portConstraint=eastwest;" parent="xfkqYVkovtJK-kkcOd9Y-2" vertex="1">
          <mxGeometry y="538" width="330" height="26" as="geometry" />
        </mxCell>
        <mxCell id="xfkqYVkovtJK-kkcOd9Y-94" style="edgeStyle=orthogonalEdgeStyle;rounded=0;orthogonalLoop=1;jettySize=auto;html=1;" parent="1" source="xfkqYVkovtJK-kkcOd9Y-34" target="xfkqYVkovtJK-kkcOd9Y-92" edge="1">
          <mxGeometry relative="1" as="geometry">
            <Array as="points">
              <mxPoint x="730" y="590" />
              <mxPoint x="730" y="590" />
            </Array>
          </mxGeometry>
        </mxCell>
        <mxCell id="xfkqYVkovtJK-kkcOd9Y-34" value="Donatário" style="swimlane;fontStyle=1;align=center;verticalAlign=top;childLayout=stackLayout;horizontal=1;startSize=26;horizontalStack=0;resizeParent=1;resizeParentMax=0;resizeLast=0;collapsible=1;marginBottom=0;" parent="1" vertex="1">
          <mxGeometry x="460" y="80" width="367" height="474" as="geometry" />
        </mxCell>
        <mxCell id="xfkqYVkovtJK-kkcOd9Y-35" value="- id: UUID" style="text;strokeColor=none;fillColor=none;align=left;verticalAlign=top;spacingLeft=4;spacingRight=4;overflow=hidden;rotatable=0;points=[[0,0.5],[1,0.5]];portConstraint=eastwest;" parent="xfkqYVkovtJK-kkcOd9Y-34" vertex="1">
          <mxGeometry y="26" width="367" height="24" as="geometry" />
        </mxCell>
        <mxCell id="xfkqYVkovtJK-kkcOd9Y-36" value="- nome: String" style="text;strokeColor=none;fillColor=none;align=left;verticalAlign=top;spacingLeft=4;spacingRight=4;overflow=hidden;rotatable=0;points=[[0,0.5],[1,0.5]];portConstraint=eastwest;" parent="xfkqYVkovtJK-kkcOd9Y-34" vertex="1">
          <mxGeometry y="50" width="367" height="26" as="geometry" />
        </mxCell>
        <mxCell id="xfkqYVkovtJK-kkcOd9Y-37" value="- sobreNome: String" style="text;strokeColor=none;fillColor=none;align=left;verticalAlign=top;spacingLeft=4;spacingRight=4;overflow=hidden;rotatable=0;points=[[0,0.5],[1,0.5]];portConstraint=eastwest;" parent="xfkqYVkovtJK-kkcOd9Y-34" vertex="1">
          <mxGeometry y="76" width="367" height="26" as="geometry" />
        </mxCell>
        <mxCell id="xfkqYVkovtJK-kkcOd9Y-38" value="- email: String" style="text;strokeColor=none;fillColor=none;align=left;verticalAlign=top;spacingLeft=4;spacingRight=4;overflow=hidden;rotatable=0;points=[[0,0.5],[1,0.5]];portConstraint=eastwest;" parent="xfkqYVkovtJK-kkcOd9Y-34" vertex="1">
          <mxGeometry y="102" width="367" height="26" as="geometry" />
        </mxCell>
        <mxCell id="xfkqYVkovtJK-kkcOd9Y-39" value="- senha: String" style="text;strokeColor=none;fillColor=none;align=left;verticalAlign=top;spacingLeft=4;spacingRight=4;overflow=hidden;rotatable=0;points=[[0,0.5],[1,0.5]];portConstraint=eastwest;" parent="xfkqYVkovtJK-kkcOd9Y-34" vertex="1">
          <mxGeometry y="128" width="367" height="26" as="geometry" />
        </mxCell>
        <mxCell id="xfkqYVkovtJK-kkcOd9Y-40" value="- itensRecebidos: List&lt;Doacao&gt;" style="text;strokeColor=none;fillColor=none;align=left;verticalAlign=top;spacingLeft=4;spacingRight=4;overflow=hidden;rotatable=0;points=[[0,0.5],[1,0.5]];portConstraint=eastwest;" parent="xfkqYVkovtJK-kkcOd9Y-34" vertex="1">
          <mxGeometry y="154" width="367" height="26" as="geometry" />
        </mxCell>
        <mxCell id="xfkqYVkovtJK-kkcOd9Y-41" value="" style="line;strokeWidth=1;fillColor=none;align=left;verticalAlign=middle;spacingTop=-1;spacingLeft=3;spacingRight=3;rotatable=0;labelPosition=right;points=[];portConstraint=eastwest;" parent="xfkqYVkovtJK-kkcOd9Y-34" vertex="1">
          <mxGeometry y="180" width="367" height="8" as="geometry" />
        </mxCell>
        <mxCell id="xfkqYVkovtJK-kkcOd9Y-42" value="+ getId(): UUID" style="text;strokeColor=none;fillColor=none;align=left;verticalAlign=top;spacingLeft=4;spacingRight=4;overflow=hidden;rotatable=0;points=[[0,0.5],[1,0.5]];portConstraint=eastwest;" parent="xfkqYVkovtJK-kkcOd9Y-34" vertex="1">
          <mxGeometry y="188" width="367" height="26" as="geometry" />
        </mxCell>
        <mxCell id="xfkqYVkovtJK-kkcOd9Y-43" value="+ getNome(): String" style="text;strokeColor=none;fillColor=none;align=left;verticalAlign=top;spacingLeft=4;spacingRight=4;overflow=hidden;rotatable=0;points=[[0,0.5],[1,0.5]];portConstraint=eastwest;" parent="xfkqYVkovtJK-kkcOd9Y-34" vertex="1">
          <mxGeometry y="214" width="367" height="26" as="geometry" />
        </mxCell>
        <mxCell id="xfkqYVkovtJK-kkcOd9Y-44" value="+ setNome(String nome): void" style="text;strokeColor=none;fillColor=none;align=left;verticalAlign=top;spacingLeft=4;spacingRight=4;overflow=hidden;rotatable=0;points=[[0,0.5],[1,0.5]];portConstraint=eastwest;" parent="xfkqYVkovtJK-kkcOd9Y-34" vertex="1">
          <mxGeometry y="240" width="367" height="26" as="geometry" />
        </mxCell>
        <mxCell id="xfkqYVkovtJK-kkcOd9Y-45" value="+ getSobreNome(): String" style="text;strokeColor=none;fillColor=none;align=left;verticalAlign=top;spacingLeft=4;spacingRight=4;overflow=hidden;rotatable=0;points=[[0,0.5],[1,0.5]];portConstraint=eastwest;" parent="xfkqYVkovtJK-kkcOd9Y-34" vertex="1">
          <mxGeometry y="266" width="367" height="26" as="geometry" />
        </mxCell>
        <mxCell id="xfkqYVkovtJK-kkcOd9Y-46" value="+ setSobreNome(String sobreNome): void" style="text;strokeColor=none;fillColor=none;align=left;verticalAlign=top;spacingLeft=4;spacingRight=4;overflow=hidden;rotatable=0;points=[[0,0.5],[1,0.5]];portConstraint=eastwest;" parent="xfkqYVkovtJK-kkcOd9Y-34" vertex="1">
          <mxGeometry y="292" width="367" height="26" as="geometry" />
        </mxCell>
        <mxCell id="xfkqYVkovtJK-kkcOd9Y-47" value="+ getEmail(): String" style="text;strokeColor=none;fillColor=none;align=left;verticalAlign=top;spacingLeft=4;spacingRight=4;overflow=hidden;rotatable=0;points=[[0,0.5],[1,0.5]];portConstraint=eastwest;" parent="xfkqYVkovtJK-kkcOd9Y-34" vertex="1">
          <mxGeometry y="318" width="367" height="26" as="geometry" />
        </mxCell>
        <mxCell id="xfkqYVkovtJK-kkcOd9Y-48" value="+ setEmail(String email): void" style="text;strokeColor=none;fillColor=none;align=left;verticalAlign=top;spacingLeft=4;spacingRight=4;overflow=hidden;rotatable=0;points=[[0,0.5],[1,0.5]];portConstraint=eastwest;" parent="xfkqYVkovtJK-kkcOd9Y-34" vertex="1">
          <mxGeometry y="344" width="367" height="26" as="geometry" />
        </mxCell>
        <mxCell id="xfkqYVkovtJK-kkcOd9Y-49" value="+ getSenha(): String" style="text;strokeColor=none;fillColor=none;align=left;verticalAlign=top;spacingLeft=4;spacingRight=4;overflow=hidden;rotatable=0;points=[[0,0.5],[1,0.5]];portConstraint=eastwest;" parent="xfkqYVkovtJK-kkcOd9Y-34" vertex="1">
          <mxGeometry y="370" width="367" height="26" as="geometry" />
        </mxCell>
        <mxCell id="xfkqYVkovtJK-kkcOd9Y-50" value="+ setSenha(String senha): void" style="text;strokeColor=none;fillColor=none;align=left;verticalAlign=top;spacingLeft=4;spacingRight=4;overflow=hidden;rotatable=0;points=[[0,0.5],[1,0.5]];portConstraint=eastwest;" parent="xfkqYVkovtJK-kkcOd9Y-34" vertex="1">
          <mxGeometry y="396" width="367" height="26" as="geometry" />
        </mxCell>
        <mxCell id="xfkqYVkovtJK-kkcOd9Y-51" value="+ getItensRecebidos(): String" style="text;strokeColor=none;fillColor=none;align=left;verticalAlign=top;spacingLeft=4;spacingRight=4;overflow=hidden;rotatable=0;points=[[0,0.5],[1,0.5]];portConstraint=eastwest;" parent="xfkqYVkovtJK-kkcOd9Y-34" vertex="1">
          <mxGeometry y="422" width="367" height="26" as="geometry" />
        </mxCell>
        <mxCell id="xfkqYVkovtJK-kkcOd9Y-52" value="+ setItensRecebidos(List&lt;Doacao&gt; itensRecebidos): void" style="text;strokeColor=none;fillColor=none;align=left;verticalAlign=top;spacingLeft=4;spacingRight=4;overflow=hidden;rotatable=0;points=[[0,0.5],[1,0.5]];portConstraint=eastwest;" parent="xfkqYVkovtJK-kkcOd9Y-34" vertex="1">
          <mxGeometry y="448" width="367" height="26" as="geometry" />
        </mxCell>
        <mxCell id="xfkqYVkovtJK-kkcOd9Y-96" style="edgeStyle=orthogonalEdgeStyle;rounded=0;orthogonalLoop=1;jettySize=auto;html=1;entryX=0.5;entryY=0;entryDx=0;entryDy=0;" parent="1" source="xfkqYVkovtJK-kkcOd9Y-53" target="xfkqYVkovtJK-kkcOd9Y-95" edge="1">
          <mxGeometry relative="1" as="geometry" />
        </mxCell>
        <mxCell id="xfkqYVkovtJK-kkcOd9Y-53" value="Doacao" style="swimlane;fontStyle=1;align=center;verticalAlign=top;childLayout=stackLayout;horizontal=1;startSize=26;horizontalStack=0;resizeParent=1;resizeParentMax=0;resizeLast=0;collapsible=1;marginBottom=0;" parent="1" vertex="1">
          <mxGeometry x="340" y="600" width="300" height="302" as="geometry" />
        </mxCell>
        <mxCell id="xfkqYVkovtJK-kkcOd9Y-57" value="- id: UUID" style="text;strokeColor=none;fillColor=none;align=left;verticalAlign=top;spacingLeft=4;spacingRight=4;overflow=hidden;rotatable=0;points=[[0,0.5],[1,0.5]];portConstraint=eastwest;" parent="xfkqYVkovtJK-kkcOd9Y-53" vertex="1">
          <mxGeometry y="26" width="300" height="26" as="geometry" />
        </mxCell>
        <mxCell id="xfkqYVkovtJK-kkcOd9Y-59" value="- itens: List&lt;Item&gt;" style="text;strokeColor=none;fillColor=none;align=left;verticalAlign=top;spacingLeft=4;spacingRight=4;overflow=hidden;rotatable=0;points=[[0,0.5],[1,0.5]];portConstraint=eastwest;" parent="xfkqYVkovtJK-kkcOd9Y-53" vertex="1">
          <mxGeometry y="52" width="300" height="26" as="geometry" />
        </mxCell>
        <mxCell id="xfkqYVkovtJK-kkcOd9Y-62" value="- dataPublicacao: DateTime" style="text;strokeColor=none;fillColor=none;align=left;verticalAlign=top;spacingLeft=4;spacingRight=4;overflow=hidden;rotatable=0;points=[[0,0.5],[1,0.5]];portConstraint=eastwest;" parent="xfkqYVkovtJK-kkcOd9Y-53" vertex="1">
          <mxGeometry y="78" width="300" height="26" as="geometry" />
        </mxCell>
        <mxCell id="xfkqYVkovtJK-kkcOd9Y-72" value="- dataRecebimento: Date" style="text;strokeColor=none;fillColor=none;align=left;verticalAlign=top;spacingLeft=4;spacingRight=4;overflow=hidden;rotatable=0;points=[[0,0.5],[1,0.5]];portConstraint=eastwest;" parent="xfkqYVkovtJK-kkcOd9Y-53" vertex="1">
          <mxGeometry y="104" width="300" height="26" as="geometry" />
        </mxCell>
        <mxCell id="xfkqYVkovtJK-kkcOd9Y-55" value="" style="line;strokeWidth=1;fillColor=none;align=left;verticalAlign=middle;spacingTop=-1;spacingLeft=3;spacingRight=3;rotatable=0;labelPosition=right;points=[];portConstraint=eastwest;" parent="xfkqYVkovtJK-kkcOd9Y-53" vertex="1">
          <mxGeometry y="130" width="300" height="8" as="geometry" />
        </mxCell>
        <mxCell id="xfkqYVkovtJK-kkcOd9Y-58" value="+ getId(): UUID" style="text;strokeColor=none;fillColor=none;align=left;verticalAlign=top;spacingLeft=4;spacingRight=4;overflow=hidden;rotatable=0;points=[[0,0.5],[1,0.5]];portConstraint=eastwest;" parent="xfkqYVkovtJK-kkcOd9Y-53" vertex="1">
          <mxGeometry y="138" width="300" height="26" as="geometry" />
        </mxCell>
        <mxCell id="xfkqYVkovtJK-kkcOd9Y-60" value="+ getItens(): List&lt;Itens&gt;" style="text;strokeColor=none;fillColor=none;align=left;verticalAlign=top;spacingLeft=4;spacingRight=4;overflow=hidden;rotatable=0;points=[[0,0.5],[1,0.5]];portConstraint=eastwest;" parent="xfkqYVkovtJK-kkcOd9Y-53" vertex="1">
          <mxGeometry y="164" width="300" height="26" as="geometry" />
        </mxCell>
        <mxCell id="xfkqYVkovtJK-kkcOd9Y-61" value="+ setItens(List&lt;Item&gt; itens): void" style="text;strokeColor=none;fillColor=none;align=left;verticalAlign=top;spacingLeft=4;spacingRight=4;overflow=hidden;rotatable=0;points=[[0,0.5],[1,0.5]];portConstraint=eastwest;" parent="xfkqYVkovtJK-kkcOd9Y-53" vertex="1">
          <mxGeometry y="190" width="300" height="26" as="geometry" />
        </mxCell>
        <mxCell id="xfkqYVkovtJK-kkcOd9Y-67" value="+ getDataPublicacao(): Date" style="text;strokeColor=none;fillColor=none;align=left;verticalAlign=top;spacingLeft=4;spacingRight=4;overflow=hidden;rotatable=0;points=[[0,0.5],[1,0.5]];portConstraint=eastwest;" parent="xfkqYVkovtJK-kkcOd9Y-53" vertex="1">
          <mxGeometry y="216" width="300" height="26" as="geometry" />
        </mxCell>
        <UserObject label="+ getDataRecebimento(): Date" id="xfkqYVkovtJK-kkcOd9Y-74">
          <mxCell style="text;whiteSpace=wrap;html=1;" parent="xfkqYVkovtJK-kkcOd9Y-53" vertex="1">
            <mxGeometry y="242" width="300" height="30" as="geometry" />
          </mxCell>
        </UserObject>
        <UserObject label="+ setRecebimento(Date dataRecebimento): void" id="xfkqYVkovtJK-kkcOd9Y-73">
          <mxCell style="text;whiteSpace=wrap;html=1;" parent="xfkqYVkovtJK-kkcOd9Y-53" vertex="1">
            <mxGeometry y="272" width="300" height="30" as="geometry" />
          </mxCell>
        </UserObject>
        <mxCell id="xfkqYVkovtJK-kkcOd9Y-75" value="Item" style="swimlane;fontStyle=1;align=center;verticalAlign=top;childLayout=stackLayout;horizontal=1;startSize=26;horizontalStack=0;resizeParent=1;resizeParentMax=0;resizeLast=0;collapsible=1;marginBottom=0;" parent="1" vertex="1">
          <mxGeometry y="880" width="250" height="242" as="geometry" />
        </mxCell>
        <mxCell id="xfkqYVkovtJK-kkcOd9Y-79" value="- id: UUID" style="text;strokeColor=none;fillColor=none;align=left;verticalAlign=top;spacingLeft=4;spacingRight=4;overflow=hidden;rotatable=0;points=[[0,0.5],[1,0.5]];portConstraint=eastwest;" parent="xfkqYVkovtJK-kkcOd9Y-75" vertex="1">
          <mxGeometry y="26" width="250" height="26" as="geometry" />
        </mxCell>
        <mxCell id="xfkqYVkovtJK-kkcOd9Y-83" value="- descricao: String" style="text;strokeColor=none;fillColor=none;align=left;verticalAlign=top;spacingLeft=4;spacingRight=4;overflow=hidden;rotatable=0;points=[[0,0.5],[1,0.5]];portConstraint=eastwest;" parent="xfkqYVkovtJK-kkcOd9Y-75" vertex="1">
          <mxGeometry y="52" width="250" height="26" as="geometry" />
        </mxCell>
        <mxCell id="xfkqYVkovtJK-kkcOd9Y-87" value="- quantidade: int" style="text;strokeColor=none;fillColor=none;align=left;verticalAlign=top;spacingLeft=4;spacingRight=4;overflow=hidden;rotatable=0;points=[[0,0.5],[1,0.5]];portConstraint=eastwest;" parent="xfkqYVkovtJK-kkcOd9Y-75" vertex="1">
          <mxGeometry y="78" width="250" height="26" as="geometry" />
        </mxCell>
        <mxCell id="xfkqYVkovtJK-kkcOd9Y-77" value="" style="line;strokeWidth=1;fillColor=none;align=left;verticalAlign=middle;spacingTop=-1;spacingLeft=3;spacingRight=3;rotatable=0;labelPosition=right;points=[];portConstraint=eastwest;" parent="xfkqYVkovtJK-kkcOd9Y-75" vertex="1">
          <mxGeometry y="104" width="250" height="8" as="geometry" />
        </mxCell>
        <mxCell id="xfkqYVkovtJK-kkcOd9Y-80" value="+ getId(): UUID" style="text;strokeColor=none;fillColor=none;align=left;verticalAlign=top;spacingLeft=4;spacingRight=4;overflow=hidden;rotatable=0;points=[[0,0.5],[1,0.5]];portConstraint=eastwest;" parent="xfkqYVkovtJK-kkcOd9Y-75" vertex="1">
          <mxGeometry y="112" width="250" height="26" as="geometry" />
        </mxCell>
        <mxCell id="xfkqYVkovtJK-kkcOd9Y-82" value="+ getDescricao(): String" style="text;strokeColor=none;fillColor=none;align=left;verticalAlign=top;spacingLeft=4;spacingRight=4;overflow=hidden;rotatable=0;points=[[0,0.5],[1,0.5]];portConstraint=eastwest;" parent="xfkqYVkovtJK-kkcOd9Y-75" vertex="1">
          <mxGeometry y="138" width="250" height="26" as="geometry" />
        </mxCell>
        <mxCell id="xfkqYVkovtJK-kkcOd9Y-84" value="+ setDescricao(String descricao): void" style="text;strokeColor=none;fillColor=none;align=left;verticalAlign=top;spacingLeft=4;spacingRight=4;overflow=hidden;rotatable=0;points=[[0,0.5],[1,0.5]];portConstraint=eastwest;" parent="xfkqYVkovtJK-kkcOd9Y-75" vertex="1">
          <mxGeometry y="164" width="250" height="26" as="geometry" />
        </mxCell>
        <mxCell id="xfkqYVkovtJK-kkcOd9Y-85" value="+ getQuantidade(): int" style="text;strokeColor=none;fillColor=none;align=left;verticalAlign=top;spacingLeft=4;spacingRight=4;overflow=hidden;rotatable=0;points=[[0,0.5],[1,0.5]];portConstraint=eastwest;" parent="xfkqYVkovtJK-kkcOd9Y-75" vertex="1">
          <mxGeometry y="190" width="250" height="26" as="geometry" />
        </mxCell>
        <mxCell id="xfkqYVkovtJK-kkcOd9Y-86" value="+ setQuantidade(int quantidade): int" style="text;strokeColor=none;fillColor=none;align=left;verticalAlign=top;spacingLeft=4;spacingRight=4;overflow=hidden;rotatable=0;points=[[0,0.5],[1,0.5]];portConstraint=eastwest;" parent="xfkqYVkovtJK-kkcOd9Y-75" vertex="1">
          <mxGeometry y="216" width="250" height="26" as="geometry" />
        </mxCell>
        <mxCell id="xfkqYVkovtJK-kkcOd9Y-91" value="" style="edgeStyle=orthogonalEdgeStyle;rounded=0;orthogonalLoop=1;jettySize=auto;html=1;" parent="1" source="xfkqYVkovtJK-kkcOd9Y-89" target="xfkqYVkovtJK-kkcOd9Y-61" edge="1">
          <mxGeometry relative="1" as="geometry" />
        </mxCell>
        <mxCell id="xfkqYVkovtJK-kkcOd9Y-89" value="realiza" style="rhombus;whiteSpace=wrap;html=1;" parent="1" vertex="1">
          <mxGeometry x="125" y="763" width="80" height="80" as="geometry" />
        </mxCell>
        <mxCell id="xfkqYVkovtJK-kkcOd9Y-93" value="" style="edgeStyle=orthogonalEdgeStyle;rounded=0;orthogonalLoop=1;jettySize=auto;html=1;" parent="1" source="xfkqYVkovtJK-kkcOd9Y-92" target="xfkqYVkovtJK-kkcOd9Y-61" edge="1">
          <mxGeometry relative="1" as="geometry" />
        </mxCell>
        <mxCell id="xfkqYVkovtJK-kkcOd9Y-92" value="recebe" style="rhombus;whiteSpace=wrap;html=1;" parent="1" vertex="1">
          <mxGeometry x="690" y="763" width="80" height="80" as="geometry" />
        </mxCell>
        <mxCell id="xfkqYVkovtJK-kkcOd9Y-97" value="" style="edgeStyle=orthogonalEdgeStyle;rounded=0;orthogonalLoop=1;jettySize=auto;html=1;" parent="1" source="xfkqYVkovtJK-kkcOd9Y-95" target="xfkqYVkovtJK-kkcOd9Y-82" edge="1">
          <mxGeometry relative="1" as="geometry" />
        </mxCell>
        <mxCell id="xfkqYVkovtJK-kkcOd9Y-95" value="possui" style="rhombus;whiteSpace=wrap;html=1;" parent="1" vertex="1">
          <mxGeometry x="450" y="991" width="80" height="80" as="geometry" />
        </mxCell>
      </root>
    </mxGraphModel>
  </diagram>
</mxfile>
